HIERARCHY
ROOT pelvis
{
  OFFSET 0 100 0
  CHANNELS 6 Xposition Yposition Zposition Zrotation Xrotation Yrotation
  JOINT pelvis_right_femur
  {
    OFFSET -10.78128 -3.44521 -0.5502486
    CHANNELS 3 Zrotation Xrotation Yrotation
    JOINT right_femur_tibia
    {
      OFFSET -0.8047443 -44.0398 -0.1307829
      CHANNELS 3 Zrotation Xrotation Yrotation
      JOINT right_tibia_foot
      {
        OFFSET 3.006224 -47.83518 -5
        CHANNELS 3 Zrotation Xrotation Yrotation
        End Site
        {
          OFFSET 0 -5 15
        }
      }
    }
  }
  JOINT pelvis_left_femur
  {
    OFFSET 10.78128 -3.44521 -0.5502486
    CHANNELS 3 Zrotation Xrotation Yrotation
    JOINT left_femur_tibia
    {
      OFFSET 0.8047443 -44.0398 -0.1307829
      CHANNELS 3 Zrotation Xrotation Yrotation
      JOINT left_tibia_foot
      {
        OFFSET -4.370144 -48.10324 -4.275266
        CHANNELS 3 Zrotation Xrotation Yrotation
        End Site
        {
          OFFSET 0 -5 15
        }
      }
    }
  }
  JOINT pelvis_spine1
  {
    OFFSET 0 6.468898 -3.129235
    CHANNELS 3 Zrotation Xrotation Yrotation
    JOINT spine1
    {
      OFFSET 0 23.15396 4.99043
      CHANNELS 3 Zrotation Xrotation Yrotation
      JOINT spine2
      {
        OFFSET 0 20.79997 -5.064912
        CHANNELS 3 Zrotation Xrotation Yrotation
        JOINT neck
        {
          OFFSET 0 14.38658 9.616178
          CHANNELS 3 Zrotation Xrotation Yrotation
          End Site
          {
            OFFSET 0 20 0
          }
        }
      }
      JOINT right_manubrium
      {
        OFFSET -5.722621 16.35077 3.967754
        CHANNELS 3 Zrotation Xrotation Yrotation
        JOINT right_clavicle
        {
          OFFSET -13.16364 1.694482 -4.693211
          CHANNELS 3 Zrotation Xrotation Yrotation
          JOINT right_humerus
          {
            OFFSET -28.5034 -0.3100689 -2.792744
            CHANNELS 3 Zrotation Xrotation Yrotation
            JOINT right_radius
            {
              OFFSET -25.15693 0.02248979 -1.271978
              CHANNELS 3 Zrotation Xrotation Yrotation
              End Site
              {
                OFFSET -15 0 0
              }
            }
          }
        }
      }
      JOINT left_manubrium
      {
        OFFSET 5.722621 16.35077 3.967754
        CHANNELS 3 Zrotation Xrotation Yrotation
        JOINT left_clavicle
        {
          OFFSET 13.16364 1.694482 -4.693211
          CHANNELS 3 Zrotation Xrotation Yrotation
          JOINT left_humerus
          {
            OFFSET 29.39168 -1.063119 -2.237045
            CHANNELS 3 Zrotation Xrotation Yrotation
            JOINT left_radius
            {
              OFFSET 24.59957 -0.9528479 0.9047498
              CHANNELS 3 Zrotation Xrotation Yrotation
              End Site
              {
                OFFSET 15 -0 -0
              }
            }
          }
        }
      }
    }
  }
}
MOTION
Frames: 23
Frame Time: 0.0416666666667
0 103.5113 0 2.301646 -0.8364928 0.1052025 3.395487 -14.65354 10.16068 -0 39.03492 -0 -5.377607 -17.72217 -3.321508 -8.834234 10.25779 -22.713 -0 7.63206 -0 19.65945 -11.52183 30.92158 -2.600904 -2.481632 5.868293 1.371882 10.80625 -6.139987 2.087766 21.94653 5.686533 3.180035 -23.71372 8.969334 5.744083 -20.03378 10.82073 85.83047 39.232 -16.74931 -0 0 14.44218 -8.854872 8.916305 5.637638 5.627337 -19.76058 -2.625105 -90.48391 22.26048 19.79238 0 0 -17.21617 15.03618 12.77615 -1.584915
0.257211 103.7295 1.62793 1.827446 0.3060597 0.1451054 4.393812 -17.03879 10.47968 -0 38.43976 -0 -5.572179 -16.61261 -3.037852 -8.657204 9.872941 -22.34946 -0 7.729726 -0 19.98782 -12.14628 30.7295 -2.585452 -2.562961 6.007627 1.367079 10.59432 -6.197909 2.08319 21.81133 5.80684 3.205641 -24.00193 9.129384 5.546522 -20.33122 10.69843 85.91916 39.73713 -16.80667 -0 0 14.74003 -8.407876 8.902272 5.508639 5.746713 -19.73956 -2.441519 -90.30624 22.64818 19.65821 0 0 -18.24646 15.14818 12.52041 -1.533217
0.4824135 103.6262 3.687625 1.188776 0.09396107 0.2280055 4.771703 -20.42045 7.290795 -0 33.17609 -0 -6.924955 -13.13543 -1.887194 -7.857024 11.38011 -21.09989 -0 7.500251 -0 16.59609 -15.15395 28.49898 -2.560396 -2.279816 6.070038 1.300173 10.57451 -6.056991 1.975646 21.82994 5.775419 3.258661 -23.70141 8.75787 5.401848 -20.27621 10.81803 85.27342 39.27201 -15.8208 -0 0 14.90129 -9.372597 8.928548 6.318018 5.579568 -19.65158 -2.452682 -90.18405 22.43615 19.71837 0 0 -17.9499 14.38823 12.2118 -0.7813114
0.7047909 103.4848 5.948609 0.7621714 0.6621808 0.3085003 5.30147 -22.68809 6.676033 -0 31.16248 -0 -7.310291 -11.63252 -1.523109 -7.516721 11.64181 -20.54446 -0 7.547182 -0 15.41655 -16.44744 27.52531 -2.508797 -2.130944 6.080827 1.286822 10.60149 -6.033641 1.929178 21.83725 5.735581 3.264216 -23.54967 8.566304 5.380106 -20.17087 10.8913 85.05643 38.89979 -15.54717 -0 0 14.88881 -9.792857 8.970295 6.632928 5.501513 -19.67106 -2.464012 -90.22195 22.46335 19.80918 0 0 -17.77129 13.83883 12.18546 -0.1905945
0.9121693 103.2268 8.542004 0.299296 0.9997704 0.4160052 5.810034 -25.28255 5.425495 -0 28.21693 -0 -8.162498 -9.396175 -0.9484539 -7.121233 12.21302 -19.57783 -0 8.142057 -0 14.3896 -17.68658 26.29575 -2.463254 -1.960363 6.093555 1.267374 10.63151 -5.994584 1.874697 21.8481 5.693274 3.274716 -23.3648 8.344882 5.348054 -20.06331 10.9757 84.78898 38.48902 -15.18667 -0 0 14.88931 -10.31248 9.01385 7.02148 5.404184 -19.67255 -2.484792 -90.23668 22.4406 19.89378 0 0 -17.54692 13.24485 12.11032 0.4321868
1.107566 102.9133 11.44832 -0.1209844 1.451178 0.5563465 6.31751 -27.49728 4.583031 -0 25.79878 -0 -8.90793 -7.53587 -0.4766378 -6.80197 12.60452 -18.75679 -0 9.012154 -0 13.62157 -18.52692 25.16973 -2.429168 -1.808752 6.105038 1.248367 10.65924 -5.955303 1.825895 21.85789 5.657223 3.28552 -23.1939 8.147387 5.316319 -19.97372 11.05101 84.54758 38.12503 -14.85101 -0 0 14.89644 -10.79493 9.051787 7.379014 5.313627 -19.66389 -2.508062 -90.23548 22.39501 19.95885 0 0 -17.3395 12.72856 12.01785 0.9660953
1.281664 102.5504 14.74795 -0.5227441 1.692698 0.7338985 6.725294 -29.3274 3.424903 -0 23.18958 -0 -9.929749 -5.455246 0.114995 -6.475625 13.11734 -17.76187 -0 10.63429 -0 12.83943 -18.9854 23.80214 -2.403849 -1.662213 6.123705 1.224895 10.67987 -5.908184 1.777 21.86474 5.627245 3.299108 -23.0246 7.956039 5.272122 -19.90651 11.12115 84.29549 37.78364 -14.4833 -0 0 14.93139 -11.28859 9.085552 7.748266 5.223082 -19.63932 -2.528905 -90.21434 22.32558 20.01395 0 0 -17.1454 12.24334 11.88818 1.46279
1.433964 102.2085 18.47121 -0.9222822 1.82931 0.9462634 7.106959 -30.54339 2.295662 -0 20.9283 -0 -11.05905 -3.485866 0.7216088 -6.135489 13.55918 -16.75735 -0 13.03731 -0 11.8911 -18.95792 22.20323 -2.387221 -1.524152 6.147481 1.197511 10.69622 -5.854078 1.729926 21.87037 5.601887 3.313879 -22.85824 7.774756 5.219195 -19.85945 11.18541 84.04064 37.46257 -14.09602 -0 0 14.99027 -11.78274 9.112987 8.118145 5.134025 -19.60041 -2.548613 -90.18028 22.2329 20.06328 0 0 -16.95379 11.79895 11.73219 1.911321
1.564633 101.9687 22.65227 -1.317241 1.703811 1.170466 7.468026 -30.89037 1.1031 -0 19.1 -0 -12.34758 -1.59425 1.346905 -5.754957 13.88857 -15.64799 -0 16.61925 -0 10.73048 -18.26126 20.311 -2.377256 -1.392931 6.17709 1.166151 10.70852 -5.793482 1.684338 21.87445 5.580241 3.329112 -22.69377 7.601575 5.157162 -19.83098 11.24439 83.78158 37.15227 -13.68891 -0 0 15.07445 -12.2801 9.134541 8.490261 5.046224 -19.54848 -2.565968 -90.13832 22.12323 20.11253 0 0 -16.76198 11.38287 11.55353 2.326832
1.681383 101.9462 27.28015 -1.700732 1.30471 1.366418 7.878634 -30.24351 0.02822688 -0 17.95039 -0 -13.6902 0.05233143 1.899764 -5.331562 13.90246 -14.45563 -0 21.53083 -0 9.43479 -16.82119 18.2382 -2.373231 -1.268728 6.211722 1.131033 10.71787 -5.726723 1.640633 21.87764 5.561414 3.34407 -22.53071 7.436619 5.087078 -19.8193 11.29831 83.52013 36.84696 -13.26539 -0 0 15.1828 -12.77913 9.149219 8.862407 4.959854 -19.48438 -2.58134 -90.09254 21.99829 20.16486 0 0 -16.56418 10.993 11.35703 2.711523
1.794437 102.2532 32.29793 -2.024368 0.5458795 1.473034 8.33864 -28.50986 -0.8839551 -0 17.48407 -0 -15.02252 1.380875 2.303769 -4.88446 13.3851 -13.14478 -0 27.91351 -0 8.238213 -14.64728 16.19189 -2.374185 -1.151225 6.251341 1.092279 10.72437 -5.654175 1.598865 21.87991 5.544938 3.358232 -22.36896 7.27956 5.008949 -19.82349 11.3473 83.2568 36.54153 -12.82688 -0 0 15.31585 -13.27937 9.156614 9.233985 4.875085 -19.40868 -2.594247 -90.04616 21.86147 20.22327 0 0 -16.35835 10.62422 11.14558 3.071466
1.911592 102.9762 37.58773 -2.221428 -0.5918776 1.431577 8.793136 -25.73228 -1.589457 -0 17.54163 -0 -16.26699 2.314069 2.479137 -4.437322 12.09002 -11.75149 -0 35.56171 -0 7.367791 -11.96504 14.42508 -2.379343 -1.04029 6.29559 1.050115 10.72819 -5.576284 1.559163 21.88137 5.530384 3.37113 -22.20846 7.130325 4.923046 -19.84248 11.39142 82.99277 36.23177 -12.37571 -0 0 15.4734 -13.77966 9.156235 9.603844 4.792122 -19.32199 -2.604531 -90.0019 21.71557 20.28992 0 0 -16.14263 10.27282 10.92206 3.410971
2.029795 104.1355 42.97898 -2.224954 -2.098549 1.211118 9.131256 -22.02965 -2.104436 -0 17.81027 -0 -17.37364 2.814495 2.378484 -3.987526 9.842465 -10.35843 -0 43.85346 -0 6.934605 -9.144981 13.14334 -2.38767 -0.9356293 6.343868 1.00503 10.72966 -5.49406 1.521637 21.882 5.517302 3.38228 -22.04931 6.988753 4.830097 -19.87448 11.4309 82.73027 35.91377 -11.91631 -0 0 15.65387 -14.27813 9.14827 9.970184 4.711212 -19.22553 -2.612172 -89.96231 21.56449 20.36628 0 0 -15.91672 9.933922 10.68973 3.7359
2.131047 105.6592 48.28395 -2.014699 -3.882012 0.8302911 9.253765 -17.65232 -2.452436 -0 17.9204 -0 -18.27767 2.873528 2.000078 -3.486458 6.664621 -9.071335 -0 51.64587 -0 6.8497 -6.604225 12.44176 -2.397899 -0.8367404 6.394806 0.9578962 10.72978 -5.409261 1.486459 21.88191 5.50502 3.391173 -21.89139 6.854532 4.731923 -19.91612 11.46626 82.47353 35.58388 -11.45679 -0 0 15.85262 -14.77196 9.133625 10.32999 4.632565 -19.1216 -2.617929 -89.92956 21.4126 20.45237 0 0 -15.68115 9.602303 10.45285 4.052527
2.188973 107.3828 53.36296 -1.647088 -5.77063 0.3447137 9.139648 -12.97291 -2.653643 -0 17.54362 -0 -18.86765 2.518447 1.400544 -2.85678 2.847831 -7.93093 -0 57.54957 -0 6.882607 -4.637451 12.2943 -2.408512 -0.7427415 6.446091 0.9099874 10.73055 -5.324514 1.453841 21.88137 5.492581 3.397316 -21.7342 6.727024 4.631639 -19.96208 11.49847 82.2291 35.23862 -11.00953 -0 0 16.06111 -15.25751 9.114096 10.67903 4.556279 -19.01384 -2.623639 -89.90508 21.26446 20.54622 0 0 -15.43746 9.272416 10.21659 4.36754
2.185469 109.0925 58.18042 -1.245006 -7.525924 -0.1937809 8.861089 -8.392022 -2.712888 -0 16.49769 -0 -18.9944 1.766622 0.6837999 -2.035935 -1.172534 -6.887385 -0 60.48211 -0 6.76355 -3.316903 12.56944 -2.417933 -0.6523616 6.494573 0.8628065 10.73491 -5.243042 1.424006 21.88094 5.47883 3.400334 -21.57665 6.605226 4.533352 -20.00546 11.52885 82.00537 34.87498 -10.59005 -0 0 16.26734 -15.73089 9.092105 11.01241 4.482311 -18.90694 -2.632276 -89.88903 21.12407 20.64355 0 0 -15.18812 8.939229 9.986339 4.686986
2.124231 110.5873 62.80398 -0.9342017 -8.909587 -0.7664604 8.519686 -4.16967 -2.628144 -0 14.82504 -0 -18.56567 0.5703573 -0.03274419 -1.015034 -5.075224 -5.868798 -0 60.08288 -0 6.314297 -2.531008 13.09629 -2.424848 -0.5641439 6.536999 0.8177177 10.74595 -5.167974 1.397089 21.88117 5.462743 3.400094 -21.41731 6.487932 4.441028 -20.03935 11.55878 81.81063 34.49086 -10.21337 -0 0 16.45867 -16.18899 9.070182 11.32582 4.410547 -18.8056 -2.647243 -89.88007 20.99416 20.73849 0 0 -14.93657 8.598961 9.766194 5.015428
2.029866 111.7153 67.35105 -0.7856389 -9.763833 -1.37793 8.178944 -0.360804 -2.407868 -0 12.78618 -0 -17.63466 -1.167832 -0.6502576 0.1603841 -8.764178 -4.861291 -0 56.59557 -0 5.525002 -2.113427 13.74394 -2.428461 -0.4767889 6.570939 0.7756044 10.76596 -5.101623 1.373051 21.88236 5.443798 3.396744 -21.25479 6.374017 4.357216 -20.05875 11.5892 81.65078 34.0852 -9.890076 -0 0 16.62537 -16.63038 9.05042 11.61682 4.340958 -18.71343 -2.67135 -89.87569 20.8759 20.82506 0 0 -14.68709 8.249348 9.557644 5.355649
1.937686 112.3789 71.93504 -0.8143066 -10.049 -2.033108 7.859881 3.090919 -2.087401 -0 10.77223 -0 -16.38602 -3.511056 -1.099481 1.413746 -12.23203 -3.921742 -0 50.49961 -0 4.526571 -1.931595 14.44998 -2.428493 -0.3893938 6.595183 0.7368093 10.79588 -5.04528 1.351671 21.8844 5.422097 3.390628 -21.088 6.262656 4.282591 -20.06126 11.62049 81.52857 33.65764 -9.625087 -0 0 16.76234 -17.05543 9.034316 11.88497 4.27372 -18.63244 -2.706225 -89.87282 20.76935 20.89819 0 0 -14.44458 7.889223 9.359508 5.709161
1.884484 112.5351 76.64243 -1.00601 -9.825849 -2.728603 7.566518 6.230841 -1.726498 -0 9.208227 -0 -15.05004 -6.394935 -1.343656 2.639414 -15.38597 -3.156835 -0 42.39875 -0 3.49238 -1.894737 15.18544 -2.425005 -0.3014928 6.609492 0.7013148 10.83562 -4.999514 1.332638 21.88676 5.398208 3.382142 -20.91619 6.153398 4.216361 -20.04654 11.65253 81.44443 33.20797 -9.419186 -0 0 16.86833 -17.46563 9.022927 12.13118 4.209254 -18.56341 -2.752444 -89.86836 20.67402 20.95388 0 0 -14.21425 7.517939 9.16885 6.076875
1.902469 112.2069 81.53384 -1.324216 -9.232206 -3.455506 7.288002 9.05232 -1.383568 -0 8.477213 -0 -13.82267 -9.547641 -1.388629 3.682432 -18.00353 -2.706752 -0 33.20012 -0 2.554409 -1.928461 15.91329 -2.418201 -0.2129818 6.614085 0.6689733 10.88445 -4.964623 1.315639 21.88869 5.372952 3.371622 -20.73889 6.046152 4.156964 -20.01526 11.68481 81.39782 32.73573 -9.271496 -0 0 16.9441 -17.86278 9.017126 12.35666 4.148214 -18.50651 -2.809989 -89.85936 20.58944 20.98874 0 0 -14.00158 7.13504 8.982021 6.459485
2.014891 111.4938 86.65588 -1.694494 -8.484103 -4.204936 6.973213 11.54197 -1.085029 -0 8.835739 -0 -12.80446 -12.45115 -1.286266 4.340425 -19.80796 -2.713313 -0 24.2241 -0 1.766946 -1.966337 16.59177 -2.408309 -0.1240417 6.609133 0.6397051 10.94148 -4.941037 1.300436 21.88936 5.347231 3.359297 -20.55575 5.941164 4.102677 -19.96822 11.71667 81.38854 32.24025 -9.181669 -0 0 16.99064 -18.24813 9.017815 12.56211 4.091496 -18.46193 -2.878726 -89.84293 20.51534 20.99915 0 0 -13.81253 6.740321 8.795477 6.857401
2.233418 110.5601 92.05585 -1.996218 -7.864304 -4.970534 6.509649 13.75244 -0.8302379 -0 10.35249 -0 -11.97764 -14.41081 -1.096598 4.413206 -20.59136 -3.265171 -0 16.92526 -0 1.113599 -1.982415 17.21593 -2.395502 -0.03510733 6.594295 0.6136833 11.006 -4.929692 1.286904 21.88795 5.321956 3.345311 -20.36658 5.839016 4.052106 -19.9055 11.74732 81.41773 31.72094 -9.151732 -0 0 17.00746 -18.62164 9.026084 12.74694 4.040321 -18.4305 -2.958809 -89.81586 20.45179 20.98029 0 0 -13.65416 6.334294 8.60643 7.270234
